<mxfile host="app.diagrams.net" modified="2023-11-26T23:45:29.116Z" agent="Mozilla/5.0 (Windows NT 10.0; Win64; x64) AppleWebKit/537.36 (KHTML, like Gecko) Chrome/119.0.0.0 Safari/537.36" etag="4lAO3n0tcTJ6A784ymX2" version="22.1.4" type="google">
  <diagram name="Página-1" id="IV1TeUPkzYolM01_6o5y">
    <mxGraphModel grid="1" page="1" gridSize="10" guides="1" tooltips="1" connect="1" arrows="1" fold="1" pageScale="1" pageWidth="827" pageHeight="1169" math="0" shadow="0">
      <root>
        <mxCell id="0" />
        <mxCell id="1" parent="0" />
        <mxCell id="NlzmF4j_dyslXLul_nai-10" style="rounded=0;orthogonalLoop=1;jettySize=auto;html=1;exitX=1;exitY=0.3333333333333333;exitDx=0;exitDy=0;exitPerimeter=0;entryX=0;entryY=0.5;entryDx=0;entryDy=0;" edge="1" parent="1" source="NlzmF4j_dyslXLul_nai-1" target="NlzmF4j_dyslXLul_nai-3">
          <mxGeometry relative="1" as="geometry" />
        </mxCell>
        <mxCell id="NlzmF4j_dyslXLul_nai-25" style="rounded=0;orthogonalLoop=1;jettySize=auto;html=1;exitX=1;exitY=0.3333333333333333;exitDx=0;exitDy=0;exitPerimeter=0;" edge="1" parent="1" source="NlzmF4j_dyslXLul_nai-1" target="NlzmF4j_dyslXLul_nai-5">
          <mxGeometry relative="1" as="geometry" />
        </mxCell>
        <mxCell id="NlzmF4j_dyslXLul_nai-1" value="&lt;font style=&quot;font-size: 14px;&quot;&gt;Usuário&amp;nbsp;Administrador&lt;/font&gt;" style="shape=umlActor;verticalLabelPosition=bottom;verticalAlign=top;html=1;" vertex="1" parent="1">
          <mxGeometry x="50" y="85" width="50" height="95" as="geometry" />
        </mxCell>
        <mxCell id="NlzmF4j_dyslXLul_nai-7" style="rounded=0;orthogonalLoop=1;jettySize=auto;html=1;exitX=1;exitY=0.3333333333333333;exitDx=0;exitDy=0;exitPerimeter=0;entryX=0;entryY=0.5;entryDx=0;entryDy=0;" edge="1" parent="1" source="NlzmF4j_dyslXLul_nai-2" target="NlzmF4j_dyslXLul_nai-6">
          <mxGeometry relative="1" as="geometry" />
        </mxCell>
        <mxCell id="NlzmF4j_dyslXLul_nai-8" style="rounded=0;orthogonalLoop=1;jettySize=auto;html=1;exitX=1;exitY=0.3333333333333333;exitDx=0;exitDy=0;exitPerimeter=0;" edge="1" parent="1" source="NlzmF4j_dyslXLul_nai-2" target="NlzmF4j_dyslXLul_nai-4">
          <mxGeometry relative="1" as="geometry" />
        </mxCell>
        <mxCell id="NlzmF4j_dyslXLul_nai-9" style="rounded=0;orthogonalLoop=1;jettySize=auto;html=1;exitX=1;exitY=0.3333333333333333;exitDx=0;exitDy=0;exitPerimeter=0;entryX=0;entryY=0.5;entryDx=0;entryDy=0;" edge="1" parent="1" source="NlzmF4j_dyslXLul_nai-2" target="NlzmF4j_dyslXLul_nai-5">
          <mxGeometry relative="1" as="geometry" />
        </mxCell>
        <mxCell id="Vy5-5-bJf9HyFria3AUo-2" style="rounded=0;orthogonalLoop=1;jettySize=auto;html=1;exitX=0.5;exitY=0.5;exitDx=0;exitDy=0;exitPerimeter=0;entryX=0;entryY=0;entryDx=0;entryDy=0;" edge="1" parent="1" source="NlzmF4j_dyslXLul_nai-2" target="NlzmF4j_dyslXLul_nai-18">
          <mxGeometry relative="1" as="geometry" />
        </mxCell>
        <mxCell id="NlzmF4j_dyslXLul_nai-2" value="&lt;font style=&quot;font-size: 14px;&quot;&gt;Usuário Comum&lt;/font&gt;" style="shape=umlActor;verticalLabelPosition=bottom;verticalAlign=top;html=1;" vertex="1" parent="1">
          <mxGeometry x="50" y="395" width="50" height="95" as="geometry" />
        </mxCell>
        <mxCell id="NlzmF4j_dyslXLul_nai-3" value="&lt;font style=&quot;font-size: 14px;&quot;&gt;Cadastrar Usuário&lt;/font&gt;" style="ellipse;whiteSpace=wrap;html=1;" vertex="1" parent="1">
          <mxGeometry x="310" y="75" width="140" height="70" as="geometry" />
        </mxCell>
        <mxCell id="NlzmF4j_dyslXLul_nai-4" value="&lt;font style=&quot;font-size: 14px;&quot;&gt;Visualizar Livros&lt;/font&gt;" style="ellipse;whiteSpace=wrap;html=1;" vertex="1" parent="1">
          <mxGeometry x="310" y="400" width="140" height="70" as="geometry" />
        </mxCell>
        <mxCell id="NlzmF4j_dyslXLul_nai-15" style="edgeStyle=orthogonalEdgeStyle;rounded=0;orthogonalLoop=1;jettySize=auto;html=1;exitX=0.5;exitY=0;exitDx=0;exitDy=0;entryX=0.5;entryY=1;entryDx=0;entryDy=0;" edge="1" parent="1" source="NlzmF4j_dyslXLul_nai-5" target="NlzmF4j_dyslXLul_nai-3">
          <mxGeometry relative="1" as="geometry" />
        </mxCell>
        <mxCell id="NlzmF4j_dyslXLul_nai-16" style="edgeStyle=orthogonalEdgeStyle;rounded=0;orthogonalLoop=1;jettySize=auto;html=1;exitX=0.5;exitY=1;exitDx=0;exitDy=0;entryX=0.5;entryY=0;entryDx=0;entryDy=0;" edge="1" parent="1" source="NlzmF4j_dyslXLul_nai-5" target="NlzmF4j_dyslXLul_nai-4">
          <mxGeometry relative="1" as="geometry" />
        </mxCell>
        <mxCell id="NlzmF4j_dyslXLul_nai-23" style="edgeStyle=entityRelationEdgeStyle;rounded=0;orthogonalLoop=1;jettySize=auto;html=1;exitX=1;exitY=0.5;exitDx=0;exitDy=0;entryX=1;entryY=0.5;entryDx=0;entryDy=0;" edge="1" parent="1" source="NlzmF4j_dyslXLul_nai-5" target="NlzmF4j_dyslXLul_nai-18">
          <mxGeometry relative="1" as="geometry" />
        </mxCell>
        <mxCell id="NlzmF4j_dyslXLul_nai-5" value="&lt;font style=&quot;font-size: 14px;&quot;&gt;Realizar Login&lt;/font&gt;" style="ellipse;whiteSpace=wrap;html=1;" vertex="1" parent="1">
          <mxGeometry x="310" y="240" width="140" height="70" as="geometry" />
        </mxCell>
        <mxCell id="NlzmF4j_dyslXLul_nai-20" style="edgeStyle=orthogonalEdgeStyle;rounded=0;orthogonalLoop=1;jettySize=auto;html=1;exitX=0.5;exitY=1;exitDx=0;exitDy=0;entryX=0.5;entryY=0;entryDx=0;entryDy=0;" edge="1" parent="1" source="NlzmF4j_dyslXLul_nai-6" target="NlzmF4j_dyslXLul_nai-18">
          <mxGeometry relative="1" as="geometry" />
        </mxCell>
        <mxCell id="NlzmF4j_dyslXLul_nai-6" value="&lt;font style=&quot;font-size: 14px;&quot;&gt;Cadastrar Livro &lt;/font&gt;" style="ellipse;whiteSpace=wrap;html=1;" vertex="1" parent="1">
          <mxGeometry x="310" y="560" width="140" height="70" as="geometry" />
        </mxCell>
        <mxCell id="NlzmF4j_dyslXLul_nai-13" value="Diagrama de Caso de Uso" style="text;html=1;align=center;verticalAlign=middle;resizable=0;points=[];autosize=1;strokeColor=none;fillColor=none;fontSize=17;" vertex="1" parent="1">
          <mxGeometry x="120" y="20" width="220" height="30" as="geometry" />
        </mxCell>
        <mxCell id="NlzmF4j_dyslXLul_nai-17" style="edgeStyle=orthogonalEdgeStyle;rounded=0;orthogonalLoop=1;jettySize=auto;html=1;exitX=1;exitY=0.5;exitDx=0;exitDy=0;entryX=1;entryY=0.6;entryDx=0;entryDy=0;entryPerimeter=0;" edge="1" parent="1" source="NlzmF4j_dyslXLul_nai-5" target="NlzmF4j_dyslXLul_nai-6">
          <mxGeometry relative="1" as="geometry" />
        </mxCell>
        <mxCell id="NlzmF4j_dyslXLul_nai-18" value="&lt;font style=&quot;font-size: 14px;&quot;&gt;Dar opinião/nota ao livro&lt;/font&gt;" style="ellipse;whiteSpace=wrap;html=1;" vertex="1" parent="1">
          <mxGeometry x="300" y="720" width="150" height="80" as="geometry" />
        </mxCell>
      </root>
    </mxGraphModel>
  </diagram>
</mxfile>
